<?xml version="1.0" standalone="no"?>
<!DOCTYPE svg PUBLIC "-//W3C//DTD SVG 20010904//EN"
 "http://www.w3.org/TR/2001/REC-SVG-20010904/DTD/svg10.dtd">
<svg version="1.0" xmlns="http://www.w3.org/2000/svg"
 width="1200.000000pt" height="462.000000pt" viewBox="0 0 1200.000000 462.000000"
 preserveAspectRatio="xMidYMid meet">

<g transform="translate(0.000000,462.000000) scale(0.100000,-0.100000)"
fill="#000000" stroke="none">
<path d="M8439 3780 c-62 -11 -99 -31 -142 -79 -38 -42 -45 -68 -50 -166 l-2
-60 -97 -3 -98 -3 0 -94 0 -94 98 -3 97 -3 2 -305 2 -305 111 -3 110 -3 0 311
0 310 155 0 155 0 0 95 0 94 -152 3 -153 3 -3 33 c-2 19 4 44 12 57 15 23 22
25 129 27 l112 3 0 95 0 95 -120 1 c-66 1 -141 -2 -166 -6z"/>
<path d="M6040 3595 l0 -184 -48 30 c-70 43 -186 65 -279 52 -150 -22 -274
-110 -336 -241 -30 -64 -32 -73 -32 -187 0 -115 1 -123 32 -185 79 -161 244
-251 433 -237 90 6 152 27 202 67 l37 30 3 -38 3 -37 103 -3 102 -3 0 561 0
560 -110 0 -110 0 0 -185z m-111 -328 c68 -34 102 -83 108 -155 12 -128 -19
-196 -111 -245 -59 -31 -184 -31 -243 0 -115 61 -153 203 -87 320 60 105 213
142 333 80z"/>
<path d="M9902 3223 l3 -558 113 -3 112 -3 0 561 0 560 -115 0 -115 0 2 -557z"/>
<path d="M3644 3485 c-160 -35 -286 -150 -329 -299 -25 -85 -17 -212 18 -289
69 -152 239 -257 417 -257 189 0 351 94 421 244 120 257 -26 541 -308 601 -82
18 -138 18 -219 0z m222 -213 c161 -83 161 -326 1 -409 -42 -21 -129 -28 -181
-13 -60 17 -120 70 -141 125 -27 70 -18 172 20 227 65 92 198 123 301 70z"/>
<path d="M4750 3489 c-61 -12 -119 -36 -157 -65 l-33 -25 0 35 0 36 -110 0
-110 0 0 -405 0 -406 113 3 112 3 5 250 c6 283 8 294 82 343 35 23 54 28 122
30 103 4 158 -21 196 -89 25 -43 25 -49 28 -291 l3 -248 110 0 110 0 -3 288
c-3 275 -4 289 -26 337 -27 58 -89 126 -148 161 -45 27 -157 54 -214 53 -19
-1 -55 -5 -80 -10z"/>
<path d="M6737 3490 c-63 -11 -163 -59 -211 -100 -183 -161 -188 -476 -11
-639 173 -157 521 -145 685 24 l30 31 -69 68 -69 69 -44 -36 c-70 -58 -132
-81 -213 -81 -117 1 -204 57 -221 142 l-6 32 331 0 331 0 0 49 c0 295 -236
490 -533 441z m183 -190 c47 -13 96 -57 115 -102 l15 -38 -220 0 -220 0 15 38
c18 43 63 85 108 100 42 13 143 14 187 2z"/>
<path d="M7755 3480 c-47 -12 -77 -26 -115 -55 l-35 -26 -3 35 -3 36 -105 0
-104 0 0 -405 0 -406 113 3 112 3 5 240 5 240 29 49 c40 68 90 89 199 85 l81
-4 16 70 c9 39 19 82 23 97 7 25 5 27 -44 37 -56 12 -129 13 -174 1z"/>
<path d="M1860 3468 c0 -2 51 -183 114 -403 l113 -400 114 -3 115 -3 119 286
c66 157 122 285 125 285 3 0 59 -129 125 -285 l120 -286 113 3 114 3 114 400
c63 220 114 401 114 403 0 1 -52 2 -115 2 l-114 0 -10 -37 c-75 -279 -131
-486 -134 -489 -1 -2 -52 116 -112 261 l-110 265 -105 0 -105 0 -109 -265
c-61 -145 -111 -263 -112 -262 -2 2 -33 113 -69 247 -36 135 -68 253 -71 263
-5 15 -19 17 -120 17 -63 0 -114 -1 -114 -2z"/>
<path d="M8892 3178 l3 -293 28 -57 c35 -72 110 -141 180 -165 38 -13 81 -18
157 -18 94 0 111 3 167 29 35 16 68 35 74 42 18 22 27 16 31 -18 l3 -33 108
-3 107 -3 0 406 0 405 -115 0 -114 0 -3 -253 -3 -254 -29 -37 c-38 -51 -95
-76 -174 -76 -75 0 -119 16 -154 59 -41 47 -49 113 -46 349 l3 212 -113 0
-113 0 3 -292z"/>
<path d="M6144 2231 c-2 -2 -4 -253 -4 -558 l0 -553 115 0 115 0 0 240 c0 182
3 249 14 274 27 65 118 116 208 116 91 0 175 -58 197 -135 6 -24 11 -132 11
-267 l0 -228 115 0 115 0 0 223 c0 254 -10 340 -46 414 -32 67 -109 136 -182
164 -70 27 -195 36 -267 20 -29 -7 -78 -27 -109 -46 l-56 -33 -2 185 -3 184
-108 2 c-60 1 -111 0 -113 -2z"/>
<path d="M8855 1991 c-38 -10 -90 -37 -133 -69 l-32 -24 -53 23 c-44 20 -68
24 -163 24 -107 0 -112 -1 -186 -38 -142 -70 -203 -172 -196 -327 4 -83 16
-122 55 -182 17 -27 17 -27 -20 -64 -50 -50 -71 -110 -64 -178 10 -97 53 -157
142 -198 44 -20 71 -23 230 -28 120 -3 188 -9 203 -18 29 -16 42 -50 42 -108
l0 -44 116 0 117 0 -5 93 c-6 103 -27 159 -81 209 -52 47 -109 58 -304 58
-194 0 -236 9 -253 56 -13 33 -7 54 24 83 23 22 25 22 70 7 26 -9 80 -16 120
-16 268 0 441 211 370 450 l-16 54 27 23 c14 13 35 23 46 23 18 0 19 8 19 100
0 111 1 109 -75 91z m-285 -246 c16 -8 42 -32 57 -52 24 -31 28 -46 28 -99 0
-48 -5 -69 -21 -91 -69 -93 -205 -107 -284 -30 -39 39 -50 65 -50 124 0 130
147 211 270 148z"/>
<path d="M1441 1934 c-174 -47 -305 -201 -318 -376 -10 -130 32 -244 121 -334
210 -209 596 -160 717 91 l29 60 -85 26 c-136 43 -132 42 -139 14 -4 -14 -24
-43 -45 -64 -101 -101 -286 -68 -346 62 -45 95 -30 201 38 271 101 105 296 80
347 -45 7 -16 18 -29 24 -29 18 0 190 51 198 58 13 13 -43 112 -89 157 -106
107 -293 152 -452 109z"/>
<path d="M2398 1935 c-84 -23 -142 -57 -209 -124 -91 -91 -113 -148 -114 -292
0 -102 1 -107 38 -181 189 -383 802 -296 867 122 26 172 -62 349 -217 432 -98
54 -259 73 -365 43z m250 -215 c115 -65 146 -240 61 -343 -95 -115 -289 -109
-374 12 -25 36 -30 54 -33 115 -6 116 42 196 140 233 51 19 157 10 206 -17z"/>
<path d="M3470 1934 c-30 -8 -74 -28 -97 -44 l-42 -29 -3 32 -3 32 -107 3
-108 3 0 -581 0 -581 113 3 112 3 0 198 c0 108 0 197 1 197 0 0 27 -13 60 -30
219 -109 474 -22 577 198 55 118 48 296 -16 402 -103 169 -294 245 -487 194z
m171 -199 c88 -31 140 -109 141 -209 1 -167 -134 -269 -295 -222 -113 33 -147
84 -147 219 0 81 3 99 23 127 58 86 174 121 278 85z"/>
<path d="M4425 1936 c-157 -39 -275 -155 -309 -306 -49 -216 35 -406 217 -490
140 -65 338 -61 478 10 39 20 122 86 128 102 2 6 -27 41 -65 79 l-68 68 -39
-35 c-108 -98 -271 -114 -375 -37 -35 26 -62 70 -62 103 0 20 4 20 326 20
l326 0 -4 93 c-6 121 -33 190 -103 265 -29 32 -75 70 -102 85 -100 54 -236 71
-348 43z m243 -198 c44 -21 92 -79 92 -110 0 -17 -16 -18 -215 -18 -143 0
-215 3 -215 10 0 20 28 65 57 91 66 61 187 73 281 27z"/>
<path d="M5489 1936 c-25 -6 -71 -26 -102 -44 -31 -18 -59 -32 -63 -32 -3 0
-4 15 -2 33 l3 32 -110 0 -110 0 -3 -402 -2 -403 115 0 115 0 0 223 c0 125 5
239 11 260 6 21 26 56 46 78 90 99 287 85 350 -26 22 -39 23 -49 23 -287 l0
-248 116 0 115 0 -3 283 -3 282 -28 57 c-65 133 -195 209 -357 207 -36 0 -86
-6 -111 -13z"/>
<path d="M7413 1935 c-74 -20 -128 -50 -179 -97 -45 -42 -100 -138 -91 -161 3
-7 46 -21 103 -31 108 -21 99 -23 136 43 49 88 243 107 301 29 17 -23 19 -32
9 -52 -13 -29 -69 -48 -197 -66 -239 -35 -345 -114 -345 -260 0 -71 26 -126
80 -173 56 -48 125 -70 219 -70 97 0 177 23 235 68 l46 35 0 -40 0 -40 100 0
100 0 0 288 c0 339 -3 357 -85 438 -71 71 -138 96 -275 100 -72 3 -121 -1
-157 -11z m305 -485 c-8 -105 -74 -157 -209 -166 -92 -7 -142 14 -147 59 -6
54 36 77 205 113 45 9 95 25 110 35 15 9 32 18 37 18 4 1 6 -26 4 -59z"/>
<path d="M9301 1934 c-123 -33 -218 -113 -274 -232 -30 -63 -32 -73 -32 -182
1 -144 22 -204 100 -289 69 -73 157 -116 270 -130 167 -21 318 21 425 117 l45
41 -69 69 -69 70 -56 -44 c-67 -52 -125 -74 -195 -74 -123 0 -200 50 -230 148
l-7 22 330 0 331 0 0 68 c0 204 -123 367 -314 418 -66 18 -186 17 -255 -2z
m257 -196 c44 -23 91 -82 92 -115 0 -10 -50 -13 -215 -13 -235 0 -232 -1 -201
58 49 94 210 129 324 70z"/>
<path d="M10366 1935 c-27 -7 -71 -27 -98 -44 -27 -17 -51 -31 -54 -31 -2 0
-4 16 -4 35 l0 35 -110 0 -110 0 0 -405 0 -405 115 0 114 0 3 248 3 249 28 41
c40 61 95 86 187 87 96 0 157 -31 189 -98 20 -40 21 -60 21 -285 l0 -242 116
0 115 0 -3 278 -3 277 -28 61 c-36 77 -104 145 -181 180 -49 22 -77 28 -155
30 -62 2 -114 -2 -145 -11z"/>
</g>
</svg>
